<svg id="레이어_1" data-name="레이어 1" xmlns="http://www.w3.org/2000/svg" viewBox="0 0 300.75768 299.53241"><defs><style>.cls-1,.cls-2{fill:#fff;}.cls-2{stroke:#fff;stroke-miterlimit:10;}</style></defs><rect class="cls-1" x="138.09069" y="0.5" width="24.57617" height="298.53223" rx="9.50391"/><path class="cls-1" d="M152.90558,1a9.01407,9.01407,0,0,1,9.00386,9.00387V289.52853a9.01407,9.01407,0,0,1-9.00386,9.00388h-5.56885a9.01407,9.01407,0,0,1-9.00386-9.00388V10.00387A9.01407,9.01407,0,0,1,147.33673,1h5.56885m0-1h-5.56885a10.00385,10.00385,0,0,0-10.00386,10.00387V289.52853a10.00386,10.00386,0,0,0,10.00386,10.00388h5.56885a10.00386,10.00386,0,0,0,10.00386-10.00388V10.00387A10.00385,10.00385,0,0,0,152.90558,0Z" transform="translate(0.25768 0)"/><rect class="cls-2" x="137.34247" y="-0.11263" width="25.55737" height="299.75768" rx="10.00387" transform="translate(0.61263 299.88738) rotate(-90)"/></svg>