<svg id="Layer_1" data-name="Layer 1" xmlns="http://www.w3.org/2000/svg" xmlns:xlink="http://www.w3.org/1999/xlink" viewBox="0 0 299.75798 298.53199"><defs><style>.cls-1{fill:none;}.cls-2{clip-path:url(#clip-path);}.cls-3{fill:#aeaeae;}</style><clipPath id="clip-path" transform="translate(-0.2422 -0.50021)"><rect class="cls-1" width="300" height="300"/></clipPath></defs><title>plus</title><g class="cls-2"><path class="cls-3" d="M147.0947,0h5.568a9.504,9.504,0,0,1,9.504,9.504V289.028a9.504,9.504,0,0,1-9.504,9.504h-5.568a9.504,9.504,0,0,1-9.504-9.504V9.504A9.504,9.504,0,0,1,147.0947,0Z"/><path class="cls-3" d="M.2422,146.9912v5.55a10.00407,10.00407,0,0,0,10.004,10.004h279.75a10.00406,10.00406,0,0,0,10.004-10.004v-5.55a10.00407,10.00407,0,0,0-10.004-10.004H10.2462a10.00407,10.00407,0,0,0-10.004,10.004" transform="translate(-0.2422 -0.50021)"/></g></svg>