<svg id="Layer_1" data-name="Layer 1" xmlns="http://www.w3.org/2000/svg" xmlns:xlink="http://www.w3.org/1999/xlink" viewBox="0 0 220.94078 220.94498"><defs><style>.cls-1{fill:none;}.cls-2{clip-path:url(#clip-path);}.cls-3{fill:#fff;}</style><clipPath id="clip-path" transform="translate(-39.53209 -35.35382)"><rect class="cls-1" width="300" height="300"/></clipPath></defs><title>x</title><g class="cls-2"><path class="cls-3" d="M247.01559,256.2988a9.44252,9.44252,0,0,1-6.72-2.784L42.3116,55.52982a9.51322,9.51322,0,0,1,0-13.44l3.952-3.953a9.50478,9.50478,0,0,1,13.44,0l197.985,197.985a9.50358,9.50358,0,0,1,0,13.441l-3.952,3.952a9.44314,9.44314,0,0,1-6.721,2.784" transform="translate(-39.53209 -35.35382)"/><path class="cls-3" d="M52.9839,256.2988a9.44082,9.44082,0,0,1-6.72-2.784l-3.952-3.952a9.51443,9.51443,0,0,1,0-13.441l197.984-197.985a9.5048,9.5048,0,0,1,13.44,0l3.953,3.953a9.50236,9.50236,0,0,1,0,13.44L59.7039,253.5148a9.44082,9.44082,0,0,1-6.72,2.784" transform="translate(-39.53209 -35.35382)"/></g></svg>