<svg id="레이어_1" data-name="레이어 1" xmlns="http://www.w3.org/2000/svg" viewBox="0 0 221.94456 221.94457"><defs><style>.cls-1{fill:#afafaf;}</style></defs><path class="cls-1" d="M247.01563,256.29883a9.44212,9.44212,0,0,1-6.71973-2.78418L42.31152,55.53027a9.51454,9.51454,0,0,1,0-13.44043l3.95215-3.95263a9.50361,9.50361,0,0,1,13.44043,0L257.68848,236.12207a9.50243,9.50243,0,0,1,0,13.44043l-3.95215,3.95215A9.4427,9.4427,0,0,1,247.01563,256.29883Z" transform="translate(-39.02772 -34.8538)"/><path class="cls-1" d="M52.984,35.85379a8.94492,8.94492,0,0,1,6.36668,2.6372L257.33508,236.4754a9.00377,9.00377,0,0,1,0,12.73339l-3.95234,3.9524a9.00388,9.00388,0,0,1-12.73342,0L42.66491,55.17676a9.014,9.014,0,0,1,0-12.73339L46.61729,38.491a8.94494,8.94494,0,0,1,6.36671-2.6372m0-1a9.97256,9.97256,0,0,0-7.07381,2.93007l-3.95239,3.95239a10.00386,10.00386,0,0,0,0,14.14761L239.9422,253.86832a10.00393,10.00393,0,0,0,14.14763,0l3.95238-3.95241a10.00389,10.00389,0,0,0,0-14.14763L60.05779,37.78387A9.97255,9.97255,0,0,0,52.984,34.8538Z" transform="translate(-39.02772 -34.8538)"/><path class="cls-1" d="M52.98389,256.29883a9.44241,9.44241,0,0,1-6.72022-2.78418l-3.95215-3.95215a9.51454,9.51454,0,0,1,0-13.44043L240.2959,38.13721a9.50361,9.50361,0,0,1,13.44043,0l3.95215,3.95263a9.50243,9.50243,0,0,1,0,13.44043L59.7041,253.51465A9.44241,9.44241,0,0,1,52.98389,256.29883Z" transform="translate(-39.02772 -34.8538)"/><path class="cls-1" d="M247.016,35.85379a8.94491,8.94491,0,0,1,6.36667,2.6372l3.95237,3.95238a9.014,9.014,0,0,1,0,12.73339L59.3507,253.16119a9.00387,9.00387,0,0,1-12.73341,0l-3.95238-3.9524a9.00387,9.00387,0,0,1,0-12.73339L240.64932,38.491a8.94494,8.94494,0,0,1,6.36672-2.6372m0-1a9.97258,9.97258,0,0,0-7.07382,2.93007L41.95779,235.76828a10.00389,10.00389,0,0,0,0,14.14763l3.95239,3.95241a10.00391,10.00391,0,0,0,14.14761,0L258.04221,55.88387a10.00386,10.00386,0,0,0,0-14.14761l-3.95238-3.95239A9.97259,9.97259,0,0,0,247.016,34.8538Z" transform="translate(-39.02772 -34.8538)"/></svg>